# AST/ASF file generated using VICON BodyLanguage
# -----------------------------------------------
:version 1.10
:name VICON
:units
  mass 1.0
  length 0.45
  angle deg
:documentation
   .ast/.asf automatically generated from VICON data using
   VICON BodyBuilder and BodyLanguage model FoxedUp or BRILLIANT.MOD
:root
   order TX TY TZ RX RY RZ
   axis XYZ
   position 0 0 0  
   orientation 0 0 0 
:bonedata
  begin
     id 1 
     name lhipjoint
     direction 0.643824 -0.71708 0.266994 
     length 2.52133 
     axis 0 0 0  XYZ
  end
  begin
     id 2 
     name lfemur
     direction 0.34202 -0.939693 0  
     length 7.51824  
     axis 0 0 20  XYZ
    dof rx ry rz
    limits (-160.0 20.0)
           (-70.0 70.0)
           (-60.0 70.0)
  end
  begin
     id 3 
     name ltibia
     direction 0.34202 -0.939693 0   
     length 7.3685   
     axis 0 0 20   XYZ
    dof rx
    limits (-10.0 170.0)
  end
  begin
     id 4 
     name lfoot
     direction 0.105419 -0.289636 0.951314   
     length 2.20972   
     axis -90 7.62852e-016 20   XYZ
    dof rx rz
    limits (-45.0 90.0)
           (-70.0 20.0)
  end
  begin
     id 5 
     name ltoes
     direction 1.53549e-011 -4.21833e-011 1   
     length 1.10139   
     axis -90 7.62852e-016 20   XYZ
    dof rx
    limits (-90.0 20.0)
  end
  begin
     id 6 
     name rhipjoint
     direction -0.608823 -0.743445 0.276811   
     length 2.43192  
     axis 0 0 0  XYZ 
  end
  begin
     id 7 
     name rfemur
     direction -0.34202 -0.939693 0   
     length 7.69715   
     axis 0 0 -20   XYZ
    dof rx ry rz
    limits (-160.0 20.0)
           (-70.0 70.0)
           (-70.0 60.0)
  end
  begin
     id 8 
     name rtibia
     direction -0.34202 -0.939693 0   
     length 7.44924   
     axis 0 0 -20   XYZ
    dof rx
    limits (-10.0 170.0)
 end
 begin
     id 9 
     name rfoot
     direction -0.103614 -0.284677 0.953007   
     length 2.22623  
     axis -90 -7.62852e-016 -20   XYZ
    dof rx rz
    limits (-45.0 90.0)
           (-20.0 70.0)
  end
  begin
     id 10 
     name rtoes
     direction -1.53537e-011 -4.22026e-011 1   
     length 1.11   
     axis -90 -7.62852e-016 -20   XYZ
    dof rx
    limits (-90.0 20.0)
  end
  begin
     id 11 
     name lowerback
     direction -0.0101212 0.99662 -0.0815298   
     length 2.08277   
     axis 0 0 0   XYZ
    dof rx ry rz
    limits (-20.0 45.0)
           (-30.0 30.0)
           (-30.0 30.0)
  end
  begin
     id 12 
     name upperback
     direction 0.024314 0.999591 -0.0150645   
     length 2.08524   
     axis 0 0 0   XYZ
    dof rx ry rz
    limits (-20.0 45.0)
           (-30.0 30.0)
           (-30.0 30.0)
  end
  begin
     id 13 
     name thorax
     direction 0.0285959 0.999323 0.0231357   
     length 2.09645   
     axis 0 0 0   XYZ
    dof rx ry rz
    limits (-20.0 45.0)
           (-30.0 30.0)
           (-30.0 30.0)
  end
  begin
     id 14 
     name lowerneck
     direction -0.065512 0.979301 0.191515   
     length 1.63798   
     axis 0 0 0   XYZ
    dof rx ry rz
    limits (-20.0 45.0)
           (-30.0 30.0)
           (-30.0 30.0)
  end
  begin
     id 15 
     name upperneck
     direction 0.0498479 0.98191 -0.182667   
     length 1.68731   
     axis 0 0 0   XYZ
    dof rx ry rz
    limits (-20.0 45.0)
           (-30.0 30.0)
           (-30.0 30.0)
  end
  begin
     id 16
     name head
     direction 0.0230358 0.996257 -0.0833175  
     length 1.69785  
     axis 0 0 0   XYZ
    dof rx ry rz
    limits (-20.0 45.0)
           (-30.0 30.0)
           (-30.0 30.0)
  end
  begin
     id 17 
     name lclavicle
     direction 0.967963 0.201165 -0.150269  
     length 3.63976  
     axis 0 0 0   XYZ
    dof ry rz
    limits (-20.0 10.0)
           (0.0 20.0)
  end
  begin
     id 18 
     name lhumerus
     direction 1 -4.48954e-011 -2.92837e-028   
     length 5.32462   
     axis 180 -30 -90   XYZ
    dof rx ry rz
    limits (-60.0 90.0)
           (-90.0 90.0)
           (-90.0 90.0)
  end
  begin
     id 19
     name lradius
     direction 1 -4.48958e-011 -6.39511e-027   
     length 3.48402   
     axis 180 -30 -90   XYZ
    dof rx
    limits (-10.0 170.0)
  end
  begin
     id 20
     name lwrist
     direction 1 -4.48975e-011 -1.1413e-026   
     length 1.74201   
     axis 6.88575e-015 90 90   XYZ
    dof ry
    limits (-180.0 0.0)
 end
  begin
     id 21 
     name lhand
     direction 1 -4.48899e-011 -2.28192e-026   
     length 0.572476   
     axis 1.45643e-014 90 90   XYZ
    dof rx rz
    limits (-90.0 90.0)
           (-45.0 45.0)
  end
  begin
     id 22 
     name lfingers
     direction 1 -4.49155e-011 -4.5684e-026   
     length 0.461545   
     axis 2.91283e-014 90 90   XYZ
    dof rx
    limits (0.0 90.0)
  end
  begin
     id 23
     name lthumb
     direction 0.707107 -6.34943e-011 0.707107   
     length 0.662688   
     axis -90 45 -2.25915e-014   XYZ
    dof rx rz
    limits (-45.0 45.0)
           (-45.0 45.0)
  end
  begin
     id 24 
     name rclavicle
     direction -0.964103 0.264019 -0.0282629   
     length 3.54491  
     axis 0 0 0   XYZ 
    dof ry rz
    limits (-10.0 20.0)
           (-20.0 0.0)
  end
  begin
     id 25 
     name rhumerus
     direction -1 -4.48964e-011 -2.45032e-027  
     length 5.33589   
     axis 180 30 90   XYZ
    dof rx ry rz
    limits (-90.0 60.0)
           (-90.0 90.0)
           (-90.0 90.0)
  end
  begin
     id 26 
     name rradius
     direction -1 -4.48987e-011 -1.55093e-027   
     length 3.64134   
     axis 180 30 90   XYZ
    dof rx
    limits (-10.0 170.0)
  end
  begin
     id 27 
     name rwrist
     direction -1 -4.4897e-011 -1.14128e-026   
     length 1.82067   
     axis 6.88575e-015 -90 -90   XYZ
    dof ry
    limits (-180.0 0.0)
  end
  begin
     id 28
     name rhand
     direction -1 -4.49021e-011 -2.28301e-026   
     length 0.734811   
     axis 1.45643e-014 -90 -90   XYZ
    dof rx rz
    limits (-90.0 90.0)
           (-45.0 45.0)
  end
  begin
     id 29
     name rfingers
     direction -1 -4.48862e-011 -4.56319e-026   
     length 0.592424   
     axis 2.91283e-014 -90 -90   XYZ
    dof rx
    limits (0.0 90.0)
  end
  begin
     id 30
     name rthumb
     direction -0.707107 -6.34978e-011 0.707107   
     length 0.850605   
     axis -90 -45 2.25915e-014   XYZ
    dof rx rz
    limits (-45.0 45.0)
           (-45.0 45.0)
  end
:hierarchy
  begin
    root lhipjoint rhipjoint lowerback
    lhipjoint lfemur
    lfemur ltibia
    ltibia lfoot
    lfoot ltoes
    rhipjoint rfemur
    rfemur rtibia
    rtibia rfoot
    rfoot rtoes
    lowerback upperback
    upperback thorax
    thorax lowerneck lclavicle rclavicle
    lowerneck upperneck
    upperneck head
    lclavicle lhumerus
    lhumerus lradius
    lradius lwrist
    lwrist lhand lthumb
    lhand lfingers
    rclavicle rhumerus
    rhumerus rradius
    rradius rwrist
    rwrist rhand rthumb
    rhand rfingers
  end

#!OML:ASF F:\VICON\USERDATA\INSTALL\rory3\rory3.ASF
:FULLY-SPECIFIED
:DEGREES
17
root -0.0925771 17.9938 -0.800759 2.56037 -11.0795 0.3631
lowerback -1.49691 -1.77284 -2.66706
upperback -0.586373 -2.33952 2.36197
thorax 0.442765 -1.17201 3.87784
lowerneck -22.29 -0.263544 -8.70797
upperneck 32.1829 2.18473 2.37209
head 14.8038 0.149447 2.88602
rclavicle 4.6938e-014 5.56597e-015
rhumerus -32.6101 -4.30532 -80.646
rradius 31.4985
rwrist 20.1639
rhand -18.0821 8.03524
rfingers 7.12502
rthumb 8.19107 -21.786
lclavicle 4.6938e-014 5.56597e-015
lhumerus -15.8868 -21.1799 91.4404
lradius 70.7506
lwrist 3.17672
lhand -30.323 22.0112
lfingers 7.12502
lthumb -3.62942 51.96
rfemur -7.9523 9.90691 16.1907
rtibia 24.4497
rfoot -15.9491 -4.04427
rtoes 3.83573
lfemur 0.728487 -2.15055 -20.7087
ltibia 12.091
lfoot -10.8035 6.8743
ltoes -12.171
18
root -0.0926678 17.9926 -0.802319 2.53435 -11.1182 0.635702
lowerback -1.52034 -1.77591 -2.91874
upperback -0.647286 -2.33886 2.28351
thorax 0.399948 -1.1698 3.93915
lowerneck -22.2356 -0.149156 -8.64739
upperneck 32.3316 2.35961 2.28264
head 14.8496 0.21192 2.87394
rclavicle 1.11568e-014 -4.77083e-015
rhumerus -32.6021 -4.39391 -80.618
rradius 31.4317
rwrist 20.3883
rhand -18.2542 8.43907
rfingers 7.12502
rthumb 8.02498 -21.3886
lclavicle 1.11568e-014 -4.77083e-015
lhumerus -15.5679 -20.9338 91.4718
lradius 69.9053
lwrist 3.0722
lhand -30.7115 21.9481
lfingers 7.12502
lthumb -4.00452 51.8902
rfemur -8.06789 9.88961 15.8725
rtibia 24.618
rfoot -15.9731 -3.91415
rtoes 4.2778
lfemur 0.820827 -2.13537 -21.012
ltibia 11.8463
lfoot -10.6493 6.90991
ltoes -12.1612
19
root -0.0854134 17.9933 -0.804828 2.65473 -11.0891 0.887077
lowerback -1.71419 -1.804 -3.04699
upperback -0.692506 -2.36938 2.1856
thorax 0.465842 -1.18544 3.90383
lowerneck -22.2389 -0.0342726 -8.56057
upperneck 32.4378 2.55172 2.13697
head 14.8901 0.278159 2.83672
rclavicle 8.10048e-015 3.18055e-015
rhumerus -32.5768 -4.33099 -80.7102
rradius 31.5898
rwrist 20.3092
rhand -18.2413 8.46678
rfingers 7.12502
rthumb 8.03741 -21.3604
lclavicle 8.10048e-015 3.18055e-015
lhumerus -15.0134 -20.8235 91.3852
lradius 68.8885
lwrist 3.10645
lhand -30.705 21.8619
lfingers 7.12502
lthumb -3.99824 51.8042
rfemur -8.35895 9.63334 15.5174
rtibia 24.8347
rfoot -15.9591 -3.67932
rtoes 4.30547
lfemur 0.830609 -2.19397 -21.3175
ltibia 11.4661
lfoot -10.4271 6.91658
ltoes -12.0952
20
root -0.0726536 17.9942 -0.808113 2.81001 -11.0114 1.24665
lowerback -1.8177 -1.85186 -3.25986
upperback -0.838771 -2.42677 2.10939
thorax 0.384118 -1.20994 3.94292
lowerneck -22.2635 0.0555798 -8.59169
upperneck 32.6405 2.74886 2.02112
head 14.979 0.331323 2.83607
rclavicle -1.13432e-014 2.54444e-014
rhumerus -32.6532 -4.14581 -80.7283
rradius 31.7741
rwrist 20.1287
rhand -18.2664 8.31874
rfingers 7.12502
rthumb 8.01322 -21.5094
lclavicle -1.13432e-014 2.54444e-014
lhumerus -14.4262 -20.8731 91.3632
lradius 67.725
lwrist 3.26934
lhand -30.8463 22.2446
lfingers 7.12502
lthumb -4.13469 52.1843
rfemur -8.69807 9.18526 15.0039
rtibia 25.0549
rfoot -15.9545 -3.35075
rtoes 4.02778
lfemur 0.779155 -2.26546 -21.7606
ltibia 11.0719
lfoot -10.2329 6.86828
ltoes -12.2649
21
root -0.068687 17.9941 -0.81067 2.87172 -10.9941 1.49258
lowerback -1.68942 -1.89829 -3.52825
upperback -1.05755 -2.48892 2.14184
thorax 0.105677 -1.23089 4.13547
lowerneck -22.2425 0.174697 -8.6335
upperneck 32.9323 3.00304 1.87443
head 15.0969 0.398089 2.83655
rclavicle -9.01985e-015 -7.95139e-016
rhumerus -32.8795 -3.83332 -80.6744
rradius 31.938
rwrist 19.9956
rhand -18.2661 8.05408
rfingers 7.12502
rthumb 8.01351 -21.774
lclavicle -9.01985e-015 -7.95139e-016
lhumerus -14.1293 -20.6745 91.5334
lradius 66.6838
lwrist 3.326
lhand -31.0823 22.473
lfingers 7.12502
lthumb -4.3626 52.4081
rfemur -8.88496 9.00361 14.6837
rtibia 25.204
rfoot -15.997 -3.19085
rtoes 3.81164
lfemur 0.789916 -2.32041 -22.048
ltibia 10.8035
lfoot -10.1099 6.88809
ltoes -12.1102
22
root -0.0728361 17.9934 -0.81415 2.82052 -11.0541 1.53654
lowerback -1.72691 -1.92647 -3.65419
upperback -1.02864 -2.52374 2.17171
thorax 0.16642 -1.24985 4.23462
lowerneck -22.2385 0.322533 -8.49938
upperneck 33.0118 3.24829 1.66526
head 15.1248 0.483767 2.77328
rclavicle 1.45734e-014 7.95139e-016
rhumerus -32.8191 -3.58822 -80.7904
rradius 32.0845
rwrist 19.846
rhand -18.2377 7.66959
rfingers 7.12502
rthumb 8.04096 -22.1574
lclavicle 1.45734e-014 7.95139e-016
lhumerus -13.6467 -20.257 91.5135
lradius 65.743
lwrist 3.14025
lhand -31.2276 22.6319
lfingers 7.12502
lthumb -4.50288 52.5641
rfemur -8.91481 9.12639 14.6637
rtibia 25.2879
rfoot -16.0248 -3.25702
rtoes 3.65124
lfemur 0.898708 -2.31044 -22.0812
ltibia 10.658
lfoot -10.0184 6.91165
ltoes -12.1173
23
root -0.0735239 17.9924 -0.816761 2.71498 -11.1208 1.42393
lowerback -1.89615 -1.91944 -3.47713
upperback -0.83449 -2.51145 2.14532
thorax 0.451062 -1.25371 4.09736
lowerneck -22.2384 0.416081 -8.43018
upperneck 32.9862 3.3859 1.59257
head 15.1067 0.541228 2.75564
rclavicle 4.42917e-015 6.36111e-015
rhumerus -32.598 -3.51127 -80.9981
rradius 32.2289
rwrist 19.6279
rhand -18.1982 7.26422
rfingers 7.12502
rthumb 8.07903 -22.5614
lclavicle 4.42917e-015 6.36111e-015
lhumerus -12.9918 -19.9609 91.3418
lradius 64.8522
lwrist 3.03218
lhand -31.3342 22.9319
lfingers 7.12502
lthumb -4.60588 52.8618
rfemur -8.81679 9.24843 14.8125
rtibia 25.3133
rfoot -16.0744 -3.24766
rtoes 3.9192
lfemur 1.04485 -2.31457 -21.9645
ltibia 10.6364
lfoot -10.0144 6.98622
ltoes -12.1561
24
root -0.0726457 17.9928 -0.8174 2.67965 -11.1751 1.30144
lowerback -1.99956 -1.9174 -3.29918
upperback -0.755076 -2.50908 2.15685
thorax 0.583417 -1.25671 4.0036
lowerneck -22.2422 0.503714 -8.35871
upperneck 33.1193 3.53712 1.4726
head 15.1653 0.589715 2.72486
rclavicle 1.09394e-014 3.97569e-015
rhumerus -32.4455 -3.44939 -81.1226
rradius 32.264
rwrist 19.5205
rhand -18.2472 6.86989
rfingers 7.12502
rthumb 8.03172 -22.9575
lclavicle 1.09394e-014 3.97569e-015
lhumerus -12.4833 -19.7655 91.2741
lradius 64.0447
lwrist 3.18158
lhand -31.5804 23.2816
lfingers 7.12502
lthumb -4.84358 53.2062
rfemur -8.76007 9.30784 14.9546
rtibia 25.299
rfoot -16.0718 -3.25966
rtoes 3.87473
lfemur 1.07919 -2.30168 -21.8396
ltibia 10.7062
lfoot -10.0167 7.05354
ltoes -12.1001
25
root -0.0716653 17.9924 -0.818744 2.6615 -11.1981 1.33027
lowerback -1.88078 -1.93526 -3.34648
upperback -0.846001 -2.53556 2.18878
thorax 0.429369 -1.26528 4.0687
lowerneck -22.1633 0.630758 -8.27822
upperneck 33.2405 3.75123 1.3059
head 15.1981 0.660035 2.68247
rclavicle 4.67889e-014 -7.95139e-016
rhumerus -32.4327 -3.42078 -81.1046
rradius 32.1554
rwrist 19.5863
rhand -18.167 6.96238
rfingers 7.12502
rthumb 8.10915 -22.862
lclavicle 4.67889e-014 -7.95139e-016
lhumerus -12.2189 -19.5424 91.3465
lradius 63.2514
lwrist 3.18436
lhand -32.1072 23.2947
lfingers 7.12502
lthumb -5.35221 53.2071
rfemur -8.75532 9.29594 14.9224
rtibia 25.2779
rfoot -16.0066 -3.28679
rtoes 3.68712
lfemur 1.04217 -2.28246 -21.8777
ltibia 10.7935
lfoot -10.0043 7.06891
ltoes -12.1402
26
root -0.0712521 17.9927 -0.820184 2.659 -11.2307 1.30578
lowerback -1.45956 -1.94112 -3.41171
upperback -1.15628 -2.55464 2.28798
thorax -0.11652 -1.25762 4.23009
lowerneck -21.9622 0.754445 -8.24086
upperneck 33.4867 3.9716 1.1323
head 15.2626 0.720995 2.64645
rclavicle 1.81143e-014 -1.03368e-014
rhumerus -32.8093 -3.27562 -80.9754
rradius 32.1314
rwrist 19.5881
rhand -17.9802 7.38573
rfingers 7.12502
rthumb 8.2894 -22.4316
lclavicle 1.81143e-014 -1.03368e-014
lhumerus -12.345 -19.1901 91.6181
lradius 62.5007
lwrist 2.97961
lhand -32.6466 23.0756
lfingers 7.12502
lthumb -5.87307 52.9742
rfemur -8.76097 9.31339 14.9461
rtibia 25.2761
rfoot -15.9649 -3.27596
rtoes 3.76653
lfemur 1.02457 -2.22376 -21.8543
ltibia 10.8418
lfoot -10.0408 7.04781
ltoes -12.2292
27
root -0.0706036 17.9919 -0.82257 2.63775 -11.2932 1.31477
lowerback -1.71428 -1.94311 -3.30828
upperback -0.987029 -2.55115 2.17552
thorax 0.190404 -1.26574 4.0421
lowerneck -21.9889 0.840747 -8.08476
upperneck 33.4189 4.04402 1.11513
head 15.2344 0.772488 2.62481
rclavicle -1.40702e-014 2.14687e-014
rhumerus -32.4886 -3.48294 -81.1741
rradius 32.0326
rwrist 19.6753
rhand -17.8276 7.6342
rfingers 7.12502
rthumb 8.43676 -22.1773
lclavicle -1.40702e-014 2.14687e-014
lhumerus -11.7181 -19.0405 91.3441
lradius 61.8013
lwrist 2.72322
lhand -32.9442 23.183
lfingers 7.12502
lthumb -6.16036 53.0734
rfemur -8.77664 9.348 14.9316
rtibia 25.3055
rfoot -15.9395 -3.22524
rtoes 3.89612
lfemur 1.03609 -2.2182 -21.8692
ltibia 10.8544
lfoot -10.0878 7.09236
ltoes -12.2577
28
root -0.0700414 17.9915 -0.82389 2.62418 -11.3143 1.32715
lowerback -1.58271 -1.96645 -3.3161
upperback -1.09708 -2.58585 2.18244
thorax 0.00752586 -1.27739 4.06014
lowerneck -21.9077 0.934425 -8.13401
upperneck 33.5384 4.19742 1.1201
head 15.2616 0.826254 2.66507
rclavicle -1.38311e-014 2.78299e-014
rhumerus -32.5952 -3.34273 -81.2242
rradius 32.0377
rwrist 19.5858
rhand -17.778 7.70808
rfingers 7.12502
rthumb 8.48457 -22.1015
lclavicle -1.38311e-014 2.78299e-014
lhumerus -11.618 -18.8492 91.3589
lradius 61.2693
lwrist 2.53252
lhand -33.144 23.3902
lfingers 7.12502
lthumb -6.35321 53.2749
rfemur -8.77931 9.36973 14.9137
rtibia 25.3242
rfoot -15.9342 -3.18413
rtoes 4.23859
lfemur 1.01938 -2.23531 -21.8832
ltibia 10.9042
lfoot -10.0852 7.10157
ltoes -12.0009
29
root -0.0697156 17.9903 -0.825292 2.59687 -11.3229 1.36297
lowerback -1.41803 -1.98588 -3.37045
upperback -1.20281 -2.61581 2.20124
thorax -0.187349 -1.28619 4.11825
lowerneck -21.8355 1.01582 -8.19307
upperneck 33.6463 4.36105 1.06219
head 15.2878 0.87389 2.6822
rclavicle 2.3264e-015 -2.38542e-015
rhumerus -32.7046 -3.12852 -81.2545
rradius 32.0428
rwrist 19.3837
rhand -17.775 7.7632
rfingers 7.12502
rthumb 8.48747 -22.0462
lclavicle 2.3264e-015 -2.38542e-015
lhumerus -11.6316 -18.7159 91.4707
lradius 60.8942
lwrist 2.4655
lhand -33.5019 23.5521
lfingers 7.12502
lthumb -6.69871 53.4261
rfemur -8.77336 9.37166 14.876
rtibia 25.3422
rfoot -15.9061 -3.17116
rtoes 4.37173
lfemur 1.01724 -2.2102 -21.9219
ltibia 10.9502
lfoot -10.1131 7.09493
ltoes -11.9683
30
root -0.0692885 17.9897 -0.824919 2.60154 -11.3564 1.33262
lowerback -1.42721 -1.99362 -3.31381
upperback -1.20022 -2.62644 2.19592
thorax -0.181227 -1.29199 4.08015
lowerneck -21.9088 1.09167 -8.17938
upperneck 33.7535 4.49487 1.03015
head 15.3488 0.920855 2.6957
rclavicle 2.38402e-014 -1.43125e-014
rhumerus -32.6361 -3.08115 -81.3249
rradius 32.0104
rwrist 19.3666
rhand -17.6136 7.68967
rfingers 7.12502
rthumb 8.64327 -22.1134
lclavicle 2.38402e-014 -1.43125e-014
lhumerus -11.5348 -18.5878 91.5207
lradius 60.6647
lwrist 2.49954
lhand -33.8437 23.5482
lfingers 7.12502
lthumb -7.02872 53.4115
rfemur -8.78586 9.38283 14.9047
rtibia 25.3532
rfoot -15.9298 -3.15345
rtoes 4.4014
lfemur 1.01836 -2.13172 -21.8881
ltibia 10.9666
lfoot -10.1742 7.04112
ltoes -12.0675
31
root -0.0694409 17.9896 -0.825421 2.61706 -11.3803 1.30606
lowerback -1.43354 -1.99849 -3.24608
upperback -1.20739 -2.63339 2.16743
thorax -0.188645 -1.29557 4.01225
lowerneck -21.9655 1.16767 -8.11891
upperneck 33.8342 4.60099 1.01378
head 15.3952 0.966185 2.70177
rclavicle -4.02461e-015 6.36111e-015
rhumerus -32.5592 -3.10084 -81.4047
rradius 31.9239
rwrist 19.4377
rhand -17.5796 7.81007
rfingers 7.12502
rthumb 8.67609 -21.9916
lclavicle -4.02461e-015 6.36111e-015
lhumerus -11.441 -18.4868 91.5288
lradius 60.5504
lwrist 2.5372
lhand -34.0879 23.6015
lfingers 7.12502
lthumb -7.26446 53.4568
rfemur -8.81829 9.42731 14.9334
rtibia 25.3757
rfoot -15.9698 -3.21496
rtoes 4.27177
lfemur 1.00671 -2.09715 -21.8507
ltibia 10.9503
lfoot -10.1869 6.97618
ltoes -12.009
